<svg width="309" height="309" viewBox="0 0 309 309" fill="none" xmlns="http://www.w3.org/2000/svg">
<path fill-rule="evenodd" clip-rule="evenodd" d="M147.429 305.929C151.334 309.835 157.666 309.835 161.571 305.929L305.929 161.571C309.834 157.666 309.834 151.334 305.929 147.429L161.571 3.07102C157.666 -0.834221 151.334 -0.834221 147.429 3.07102L3.07051 147.429C-0.834702 151.334 -0.834702 157.666 3.07051 161.571L147.429 305.929ZM155 210C185.375 210 210 185.599 210 155.5C210 125.4 185.375 101 155 101C124.624 101 99.9997 125.4 99.9997 155.5C99.9997 185.599 124.624 210 155 210Z" fill="black" fill-opacity="0.17"/>
</svg>
