<svg width="24" height="32" viewBox="0 0 24 32" fill="none" xmlns="http://www.w3.org/2000/svg">
<path fill-rule="evenodd" clip-rule="evenodd" d="M24 12C24 15.9257 22.1149 19.4111 19.2006 21.6004C19.6521 21.939 20.0816 22.311 20.4853 22.7147C22.7357 24.9652 24 28.0174 24 31.2H12L0 31.2C0 28.0174 1.26428 24.9652 3.51472 22.7147C3.91843 22.311 4.34794 21.939 4.79937 21.6004C1.88506 19.4111 0 15.9257 0 12C0 5.37258 5.37258 0 12 0C18.6274 0 24 5.37258 24 12ZM12 19C15.866 19 19 15.866 19 12C19 8.13401 15.866 5 12 5C8.13401 5 5 8.13401 5 12C5 15.866 8.13401 19 12 19Z" fill="#A6A6A6"/>
</svg>
